<?xml version="1.0" encoding="UTF-8"?>
<svg version="1.1" viewBox="0 0 2000 2000" width="1280" height="1280" xmlns="http://www.w3.org/2000/svg">
<path transform="translate(0)" d="m0 0h2e3v2e3h-2e3z" fill="#121221"/>
<path transform="translate(0)" d="m0 0h2e3v1h-880v3l160 1v1l-7 1 1 1h51v-3h19v8l-2 1-12 1-3 5-1 10-11 1-4 4-1 11-11 1-4 4-1 11-11 1-4 4-1 11-11 1-4 4-1 11-11 1-4 4-1 11-11 1-4 4-1 11-11 1-4 4-1 11-11 1-4 4-1 11-11 1-4 4-1 11-11 1-4 4-1 11-11 1-4 4-1 11-11 1-4 4-1 11-11 1-4 4-1 11-11 1-4 4-1 11-11 1-4 4-1 11-11 1-4 4-1 11-11 1-4 4-1 11-11 1-4 4-1 11-11 1-4 4-1 11-11 1-4 4-1 11-11 1-4 4-1 11-11 1-4 4-1 11-11 1-4 4-1 11-11 1-4 4-1 11-11 1-4 4-1 11-11 1-4 4-1 11-11 1-4 4-1 11-11 1-4 4-1 11-11 1-4 4-1 11-11 1-4 4-1 10-1 1-10 1-3 2 1 9 16-1 2-2h59l2 2 34 1 1-3 2-1 24-1 3-1 13-1 6-5h3v2l-5 2-2 7h49l-1-4 1-1h14l3 2v2h11v1h39l4-2v2h105l53 1 19 4 13 4 17 9 10 8 10 9v2h2v2l4 2 8 11v3h2l6 13 6 16 2 11 1 8v502l-2 18-5 16-5 12-6 10-9 12-9 10-13 10-13 8h-3v2l-15 5-12 3-8 1h-541l-21-5-13-5-17-11-11-9-2-1-3-5-7-8v-2h-2v-3h-2l-7-13v-3h-2l-1-8h-2l-5-20v-5l-3-1v-16h2v-118l-4-1 2-2 1-117-1-3v-10l-2-5v-28l2-5v-10l-2-5 1-6-1-3-1-84-3-1-2 4-1 10-10 1-4 4-1 11-11 1-4 4-1 11-11 1-4 4-1 11-11 1-4 4-1 11-11 1-4 4-1 11-11 1-4 4-1 11-11 1-4 4-1 11-11 1-4 4-1 11-11 1-4 4-1 11-11 1-4 4-1 11-11 1-4 4-1 11-11 1-4 4-1 11-11 1-4 4-1 11-11 1-4 4-1 11-11 1-4 4-1 11-11 1-4 4-1 11-11 1-4 4-1 11-11 1-4 4-1 11-11 1-4 4-1 11-11 1-4 4-1 11-11 1-4 4-1 11-11 1-4 4-1 11-11 1-4 4-1 11-11 1-4 4-1 11-11 1-4 4-1 11-11 1-4 4-1 11-11 1-4 4-1 11-11 1-4 4-1 11-11 1-4 4-1 11-11 1-4 4-1 11-11 1-4 4-1 11-11 1-4 4-1 11-11 1-4 4-1 11-11 1-4 4-1 11-11 1-4 4-1 11-11 1-4 4-1 11-11 1-4 4-1 11-10 1-2 2-1 12-2 3-5-1-1-2-1-63-2 2 1-11v-50l2-4 4-2 1-75h-11v78l-1 67-1 717h-1z" fill="#1F1F3B"/>
<path transform="translate(901,604)" d="m0 0h1v68l-5 3-28 6-33 7h-4l-1 4-8 16-4 7v17l2 91-1 9-1 6 1 6-9 12-13 16-3 4 1 4 13 17 10 13 2 2v27l-2 85v16l8 14 7 14 16 3 17 3 34 7 1 1v69l-9-1-17-4-12-3-67-16-11-3-8-11-10-15-12-17-10-14 2-7v-33l6-83v-9l-9-10v-2l-3-1-3-5-5-5-9-10-9-11-10-12 1-4 11-12 8-11 5-5 6-7 5-6h2l2-4 8-10-2-33-3-48-3-44v-7h2l1-4 10-13 3-6h2v-3h2l2-5 1-2h2l2-6 3-3 4-7 3-3 2-4 17-5 27-6 32-8 19-4 1-1 9-2z" fill="#2192BB"/>
<path transform="translate(1099,604)" d="m0 0 19 4 33 8 15 3 16 4 33 8 5 7v2h2l3 5 14 21v2l3 1 5 9 4 5v2h2l2 4-1 22-4 62-3 41v6l9 10 9 11 4 5v2l3 1 9 11 13 15 1 5h-2l-2 4-13 15-9 10-6 7-9 11-6 8h-2l1 4 5 75 2 40-3 6-9-1h-4l15 6v4l-7 11-7 9-3 6h-2l-2 5-14 20-2 4-30 7-18 5-22 5-42 10h-5v-68l7-3 39-8 21-3 12-22 4-7v-22l-1-47-1-27v-30h6l1-1-2-1 1-4 10-16 10-12-1-5-13-16-8-11-3-4 2-8-2-6v-54l1-40v-20l-11-23-2-4-22-5-44-9-4-2z" fill="#2192BB"/>
<path transform="translate(1207,876)" d="m0 0 2 1 33 1 3 2 4 3 11 4 10 2 8 4 6-4 2 1-10 11-9 11-4 4-9 11-6 8h-2l1 4 5 75 2 40-3 6-9-1h-4l15 6v4l-7 11-7 9-3 6h-2l-2 5-14 20-2 4-30 7-18 5-22 5-42 10h-5v-68l7-3 39-8 21-3 12-22 4-7v-22l-1-47-1-27v-30h6l1-1-2-1 1-4 10-16 10-12z" fill="#2192BB"/>
<path transform="translate(810,979)" d="m0 0h8l1 7v54l8 14 7 14 16 3 17 3 34 7 1 1v69l-9-1-17-4-12-3-67-16-11-3-8-11-10-15-12-17-10-14 2-7v-33l3-43h1l1 5 9-3 13-1 4-1 13-1 6-2z" fill="#2192BB"/>
<path transform="translate(901,604)" d="m0 0h1v68l-5 3-28 6-33 7h-4l-1 4-8 16-4 7v53h-1l-1-7-64-1v2h-2l-4-52-1-22h2l1-4 10-13 3-6h2v-3h2l2-5 1-2h2l2-6 3-3 4-7 3-3 2-4 17-5 27-6 32-8 19-4 1-1 9-2z" fill="#45B9CC"/>
<path transform="translate(1182,1040)" d="m0 0 7 1 45 17 17 6 3 2-2 5-9 13-4 5-3 6h-2l-2 5-14 20-2 4-30 7-18 5-22 5-42 10h-5v-68l7-3 39-8 21-3 12-22z" fill="#2292BB"/>
<path transform="translate(933,1280)" d="m0 0h56l15 3 14 7 10 9 7 13 2 9v17l-2 8-4 9-6 8-7 6-12 6-12 3-8 1h-52l-1-1z" fill="#2190BA"/>
<path transform="translate(851,1278)" d="m0 0h17l12 3 16 8 5 6 5 5 7 14 2 11v9l-2 10-4 10-5 8-5 5-8 6-14 6-11 2h-14l-16-4-10-5-10-8-2-4-2-1-5-10-2-5-1-7v-17l4-13 7-11 9-8 14-7z" fill="#44B7CB"/>
<path transform="translate(1240,1279)" d="m0 0h16l10 3 8 5 6 10v13l-5 9-7 6-3 3 8 7 5-11 16 4 8 3-1 7-4 10-2 6 7 6-3 6h-2l-2 4-8 9-4-1-6-5-6 1-8 4-9 2h-22l-14-4-10-7-5-8-1-3v-13l5-10 7-7 4-3h2l-6-11-1-2v-13l5-10 6-5 9-4z" fill="#186497"/>
<path transform="translate(1056,1280)" d="m0 0h79l1 1v24l-47 1v11h41v23l-1 1h-40l1 12 47 1 1 1v21l-1 2h-81z" fill="#2192BB"/>
<path transform="translate(900,616)" d="m0 0 2 1v55l-5 3-28 6-33 7h-4l-1 4-8 16-4 7-8-1-17-6-28-11-9-4v-1h5l2-5 1-2h2l2-4 4-6 3-1 2-4 4-5 10-10 2-4v-6l-1-3 4 2 8 8v2h2l5 6 1-2 3 1 6-4h2v-2l11-4 7-3 16-8 9-3 19-10 8-3 4-3z" fill="#2192BB"/>
<path transform="translate(740,1278)" d="m0 0h20l17 5 11 8 5 5-1 4-8 7-10 9h-3l-4-5-7-4-5-1h-9l-8 3-6 7-3 9v9l4 10 5 6 9 3h9l12-6 4-4 5 2 3 3v2l4 2 9 8-2 5-8 7-10 5-9 3-9 1h-13l-14-3-10-5-9-7-5-6-5-8-4-14v-18l4-13 6-10 8-8 12-7z" fill="#44B8CC"/>
<path transform="translate(800,898)" d="m0 0h4l-2 4h-2l-2 4-3 2-1 6-3 5v1 2l9-2 19-6h2v25l-1 46-2 1v-7l-20 3-6 2-13 1-4 1-13 1-10 3v-16l2-30v-9l-9-10v-2l-3-1-4-6 1-2 4 3v-2l15-5 5-2 11-2 2-2z" fill="#45B9CC"/>
<path transform="translate(1099,604)" d="m0 0 19 4 33 8 15 3 16 4 21 5v2l9 2-2 5-5 5-5 1-10 4-9 5-5 2-18 9-19 8-9 2-1 3-9 1v-2l-8-1-2-4-8-6-3-6z" fill="#2192BB"/>
<path transform="translate(810,979)" d="m0 0h8l1 7v38l-1 15-20 8-27 10-21 8-4 1 2-6v-33l3-43h1l1 5 9-3 13-1 4-1 13-1 6-2z" fill="#2192BB"/>
<path transform="translate(1241,821)" d="m0 0h5l10 9 9 11 4 5v2l3 1 9 11 13 15 1 5h-2l-2 4-4 5-4 2h-3l-1 3-8-3-4-2-10-2-12-5-3-3-33-1-5-4-11-14-4-6-2-6-2-1v-2l5 1 1-3 4-4 3-1 8-1 5-5 17-6z" fill="#2192BB"/>
<path transform="translate(1203,629)" d="m0 0 7 1 6 2 4 6v2h2l3 5 8 12 5 7-1 2 1 3h-3l1 3h-2l-1 4-10 9h-2l-1 3-8 7-4 5-5 2v2l-8 8-10 4-2 2-11-22-3-7-22-5-44-9-4-2v-15l3 4 4 4 8 6 3 2 3 1v2l9-2 3-3 12-4 23-10 2-2 7-3 9-4 11-6 6-1 1-2v2l5-2 4-8-9-2z" fill="#186497"/>
<path transform="translate(1236,665)" d="m0 0 3 1v2l3 1 5 9 4 5v2h2l2 4-1 22-3 38-11 1-16-4h-8l-5-1-14-2-10-2h-3l-1 3v-26l4-4 10-4 3-5 3-1v-2l5-2 2-4 8-8 8-7 7-6 2-6 2-1z" fill="#45B9CC"/>
<path transform="translate(816,1039)" d="m0 0 4 2 11 20v8l-9 12h-2l-2 5-5 4h-3l-1 3-3 5-4 5-9 9h-2l-1 5-2 4h-3l-7-8-10-15-12-17-10-14 4-3 27-10z" fill="#2292BB"/>
<path transform="translate(1207,876)" d="m0 0 2 1 33 1 3 2 4 3 11 4 10 2 8 4 6-4 2 1-10 11-9 11-4 4-9 11-6 8-3 1-60-20 2-3-2-1 1-4 10-16 10-12z" fill="#186396"/>
<path transform="translate(1180,914)" d="m0 0 11 3 54 18 2 4 1 14v13l-3 1-20 7-4 2-13 2-8 3-10 4-5 1-1-1-1 5h-1l-2-46z" fill="#45B9CC"/>
<path transform="translate(753,760)" d="m0 0h65v8h2v32l-1 7-1 1h-47l-3-2v-2h-2v4h-2l-1 2-3-3-3-1-1 2-4-21-1-25h2z" fill="#2192BB"/>
<path transform="translate(1172,1058)" d="m0 0 3 4-2 1-3 1 1 7 13 15 7 11-12-1-11-2h-10l-10 7-10 4-6 4-8 3-9 6-10 5h-3l-2 12h-1v-52l7-3 39-8 21-3z" fill="#186497"/>
<path transform="translate(1181,776)" d="m0 0h1l2 19 21 3 3 1 28 2h4l1 2 5-5 1-6h1l-1 28 2 4-3-2-7 1-20 7-9 4-4 4-9 1-3 1-1 3-3 3-5-1v2l3 1 1 5-5-5-3-4 2-8-2-6z" fill="#186396"/>
<path transform="translate(1225,1056)" d="m0 0 7 1 21 8v4l-7 11-7 9-3 6h-2l-2 5-14 20-2 4-30 7-18 5-22 5h-5l1-3 10-2 5-4h4l-1-3 10-2 4-4 9-5 10-5 8 1 7 3-2-5 1-6 5-14 2-3v-5l5-12 3-11z" fill="#44B8CC"/>
<path transform="translate(1249,997)" d="m0 0h2l3 53-1 7-2 3-9-1h-8l-40-15-11-4v-21h1l1 12 16-4 13-4 8-2 15-4 6-4 5-2 1-2z" fill="#186396"/>
<path transform="translate(713,1412)" d="m0 0h23l9 3 7 5 5 8 1 4v9l-3 8-4 5-2 1-5 4-7 2h-24z" fill="#131323"/>
<path transform="translate(831,1063)" d="m0 0 2 3 1 2 16 3 17 3 5 1-1 2-7 1-5 3-9 9-7 5-5 6-9 6-2 3h-2l-1 5-5 5-5 3-6 1-1 2 7 2-1 2-12-2-15-4-4-5 1-2 2 4 5-6 1-3 6-5 5-5 5-6 3-6 7-4 3-5h2l2-4 6-8z" fill="#186497"/>
<path transform="translate(1223,646)" d="m0 0 4 2 9 13 2 4v4h-3l1 3h-2l-1 4-10 9h-2l-1 3-8 7-4 5-5 2v2l-8 8-10 4-2 2-3-9 1-7 1-2h2l2-7 9-16 2-5h2l1-4 3-1 2-5 4-4h2l2-4 6-7 4 1z" fill="#2192BB"/>
<path transform="translate(854,1305)" d="m0 0h9l10 4 4 4 4 10v11l-3 10-9 8-5 2h-9l-8-3-7-8-2-6-1-9 3-12 3-5 8-5z" fill="#121323"/>
<path transform="translate(749,827)" d="m0 0 3 3 1 8 6 10 3 6 4 5 2 8-5 5-5 4-1 2h-51l2-4 10-11 8-11 5-5 6-7 5-6h2l2-4z" fill="#45B9CC"/>
<path transform="translate(753,792)" d="m0 0 2 4 2 10 4 1 2 2 3-1v-4h2l3 3h47l1-7h1l1 23-1 9-1 6 1 6-9 12v-3l1-5h2l-4-6-4-3-12-5-28-10-11-4-1-5z" fill="#186396"/>
<path transform="translate(816,1039)" d="m0 0h2l-1 5-1 3h-2l-2 5-6 5-3 5-5 5-3 5-6 4-5 7-3 2-1 3-4 3h-2l-2 9 1 2-3-1-13-19-11-15 4-3 27-10z" fill="#44B8CC"/>
<path transform="translate(968,1306)" d="m0 0h16l9 3 7 6 3 7 1 10-3 10-6 7-7 3h-21v-45z" fill="#121221"/>
<path transform="translate(901,638)" d="m0 0h1v34l-5 3-28 6-33 7h-4l-1 4-8 16-4 7-8-1-3-2 6-1-1-11-2-19-1-10-1-7 1-4 8 8v2h2l14 16 6-3 11-1 3-1-1-3 2-1h10l-4-2 3-3 7-3 11-4 5-5 1-4h3l1-4 4-4h2l1-4z" fill="#186497"/>
<path transform="translate(1099,604)" d="m0 0 19 4 33 8 10 2 1 2h-8l-3 4h-4v2l-21 11-12 5-5 1-4-5-4-2-2 1z" fill="#45B9CC"/>
<path transform="translate(818 1e3)" d="m0 0h1v21l-1 15-20 8-27 10-21 8-4 1 2-6v-33l2 3v8l2 2 14-3 6-2 36-4 8-2z" fill="#186396"/>
<path transform="translate(1266,845)" d="m0 0 3 1v2l3 1 9 11 13 15 1 3h-47l-6-1 1-3-6-3v-2h-2v-3l9-6 7-3 5-4 8-5z" fill="#45B9CC"/>
<path transform="translate(1204,1126)" d="m0 0h6l-3 3 9 2v2l-4 1-7 1-2 2-9 3-1 1-17 1-8 4-16 1-7 1-3 2h-10l1 2h-7v2l-7-1-12-2 1-2 42-10 18-4 18-5z" fill="#131425"/>
<path transform="translate(1081,1412)" d="m0 0h5v2h2l5 10 12 21 1 3h2l2-6 12-20 5-9 5-1v50h-4l-1-37-3 1-1 4-6 11-9 14h-3l-6-10-12-21-1 37-4 1-1-1z" fill="#1E1E3A"/>
<path transform="translate(984,1411)" d="m0 0h8l10 3 8 7 4 11v9l-4 10-5 6-9 5h-12l-10-3-8-7-5-13 2-12 5-8 6-5zm-3 5-8 5-5 7-1 3v12l6 9 8 5 9 1 9-3 6-5 4-8v-11l-4-8-4-2v-2l-7-3z" fill="#1E1F3B"/>
<path transform="translate(1202,1412)" d="m0 0h5l1 4h2l3 4v2h2l4 6 11 14 7 9 1-39h5v49l-4 1-2-4h-2l-8-11-13-16-5-7-2-1-1 39h-4z" fill="#1F1F3B"/>
<path transform="translate(901,1112)" d="m0 0h1v39l-9-1-17-4-10-3-1-2h6l-1-2 4-2 3-3 6-3 3-4h2l1-3 4-2h3l2-9z" fill="#45B8CC"/>
<path transform="translate(1152,1412)" d="m0 0h33v4h-29l1 17h24l2 4v1h-26v18l29 1v5h-34z" fill="#1F1F3B"/>
<path transform="translate(1029,1411)" d="m0 0 25 1 7 3 5 5 1 3v10l-2 6h-2v2l-5 3-10 2h-15v16h-4zm4 5v25h20l5-3 4-5v-9l-5-6-4-2z" fill="#1F1F3B"/>
<path transform="translate(706,878)" d="m0 0h63l-4 2-9 3-12 3-3 2-15 2v2h-4l-1 3 2 1h-3l-9-11-5-6z" fill="#186497"/>
<path transform="translate(713,1412)" d="m0 0h23l9 3 7 5 5 8 1 4v9l-3 8-4 5-2 1-5 4-7 2h-24zm4 3-1 1-1 42h22l9-3 6-7 3-8-1-11-5-8-6-4-7-2z" fill="#45B9CC"/>
<path transform="translate(872,1412)" d="m0 0h20v3h-12l-4-1 1 6-2 4h2v10l3 3h-2v20h29l1 4-3 2-1-1h-31z" fill="#1E203D"/>
<path transform="translate(774,1412)" d="m0 0h32v3h-29v20h26l-1 3h-25v20h30v3h-32l-1-1z" fill="#186396"/>
<path transform="translate(924,1411)" d="m0 0 4 1v45h28l1 2-1 3h-32l-2-6v-44z" fill="#1F1F3B"/>
<path transform="translate(1254,1412)" d="m0 0h40l-1 4h-17v46h-4l-1-2v-44h-17z" fill="#1F1F3B"/>
<path transform="translate(1237,1340)" d="m0 0 4 1 13 11v2l2 1-5 2h-11l-5-3-2-2v-7z" fill="#141426"/>
<path transform="translate(713,1412)" d="m0 0h23l9 3 7 5 5 8 1 4v9l-3 8-4 5-3-1 5-9 1-10-3-9-4-5-11-4-19-1v-2l-4 1z" fill="#2075A1"/>
<path transform="translate(892,1412)" d="m0 0h16l-1 4-28 1-1 17h26v4l-25 1-2-4-2-2h2v-9h-2v-5l1-3v-2l16 1z" fill="#1F1F3B"/>
<path transform="translate(1e3 511)" d="m0 0h31l4 2 1 3h-45v-2z" fill="#1F1F3B"/>
<path transform="translate(882,1412)" d="m0 0h10v3h-12l-4-1 1 6-2 4h2v10l3 3-3 2v18l-3-1v-41l1-2z" fill="#186497"/>
<path transform="translate(1056,1280)" d="m0 0h79l1 1v24h-13v-1h12l-1-22-78-1z" fill="#186497"/>
<path transform="translate(857,1417)" d="m0 0 2 1-2 6-2 4v7l-1 3-3 3-3 6h-2l-2 4-1-4 5-10 1-5 2-3 2-7z" fill="#1D2441"/>
<path transform="translate(1246,1299)" d="m0 0 6 1 2 3-1 5-5 4-4-1-3-4 1-6z" fill="#151528"/>
<path transform="translate(1241,1088)" d="m0 0 1 2 3 1v7l-9 3 3 2-4 2v-2l-3 1-1-4 3-5h2l2-5z" fill="#121323"/>
<path transform="translate(1231,1108)" d="m0 0 2 2-5 10h-4l-1 3-1 2h-2v3l-5-2 2-6 7-9 1 4 4-4z" fill="#141426"/>
<path transform="translate(877,1433)" d="m0 0 27 1v4l-25 1z" fill="#1E203D"/>
<path transform="translate(747,1453)" d="m0 0 2 3-8 4-4 1h-24l1-3 23-1 9-3z" fill="#1D709F"/>
<path transform="translate(832,688)" d="m0 0h7l1 4-3 4-6 3-1 1v8l-3 3-3-2 2-6 5-9z" fill="#121222"/>
<path transform="translate(827,1433)" d="m0 0 3 3 2 4 6 15 1 1 3-6 2 1-1 5-3 5-4-2-3-7-6-13z" fill="#186194"/>
<path transform="translate(820,1133)" d="m0 0 10 1 17 4 2 2-3 2h-13l-1-4-10-2-3-2z" fill="#16162A"/>
<path transform="translate(776,1458)" d="m0 0h31v3h-32z" fill="#186597"/>
<path transform="translate(1128,1337)" d="m0 0h2l-1 4h-40l1-2 34-1 4 1z" fill="#186497"/>
<path transform="translate(755,1428)" d="m0 0h2l1 4v9l-3 8-4 5-3-1 5-9 1-10v-2h2z" fill="#1E6D9B"/>
<path transform="translate(1111,1354)" d="m0 0h26l1 1v21l-1 2h-22v-1l20-1 1-1v-15l-1-5h-24z" fill="#186497"/>
<path transform="translate(856,1141)" d="m0 0 12 2 8 2 2 2-14 2-3-3 1-1-8-2z" fill="#141629"/>
<path transform="translate(804,862)" d="m0 0v3l-9 11-2 3-7-2 3-5 6-2 4-1v-4z" fill="#186497"/>
<path transform="translate(1260,921)" d="m0 0 1 3h2l-2 5-2 3h-4v-2h-2l-1 3-1-4z" fill="#131324"/>
<path transform="translate(713,1412)" d="m0 0h23l1 2-2 1h-18v-2l-4 1z" fill="#2076A3"/>
<path transform="translate(816,1412)" d="m0 0h3l4 9 3 8 1 4-2 2-5-12-4-9z" fill="#186496"/>
<path transform="translate(1246,935)" d="m0 0 4 1 1 8h-2v20h-1z" fill="#141425"/>
<path transform="translate(722,517)" d="m0 0h11l2 5h-12v-2l-2-1z" fill="#121222"/>
<path transform="translate(1094,1317)" d="m0 0h36v19h-1v-18l-6 2-1-1-28-1z" fill="#186497"/>
<path transform="translate(874,1439)" d="m0 0h3v18l-3-1z" fill="#186497"/>
<path transform="translate(934,511)" d="m0 0 8 1-1 4h-11v-4z" fill="#1F1F3B"/>
<path transform="translate(874,679)" d="m0 0h12l-4 2-9 2-2 2-3-1-2-2 3-2z" fill="#141426"/>
<path transform="translate(857,1417)" d="m0 0 2 1-2 6-2 4-2 1-1 7-2-2 2-10z" fill="#195583"/>
<path transform="translate(874,1424)" d="m0 0h3v10l3 3-6 2z" fill="#186193"/>
<path transform="translate(682,527)" d="m0 0h5l2 2 1 3-6 2-3-1-1-4z" fill="#121221"/>
<path transform="translate(641,568)" d="m0 0 4 1 1 6-5 1-2-2 1-5z" fill="#121221"/>
<path transform="translate(1237,1096)" d="m0 0h2l-1 5 1 1-3 3-1-2-3 1-1-4z" fill="#141426"/>
<path transform="translate(1273,906)" d="m0 0 3 3v2l-6 1-3 5-4 2 4-8z" fill="#121222"/>
<path transform="translate(860,683)" d="m0 0 3 1-4 3-8 2-5-2 4-3z" fill="#141425"/>
<path transform="translate(1237,1058)" d="m0 0h10l4 6-6-1-8-4z" fill="#1C375C"/>
<path transform="translate(1250,1072)" d="m0 0h2l-1 6-3 3-4 5-2 1 1-4z" fill="#15172A"/>
<path transform="translate(861,1411)" d="m0 0 3 2h-2l-1 5h-4l-3 3 2-5 2-4z" fill="#1E2847"/>
<path transform="translate(820,1133)" d="m0 0 10 1 7 3-2 1-13-2-3-2z" fill="#141426"/>
<path transform="translate(1219,1120)" d="m0 0h3v5h-2v3l-5-2 2-4z" fill="#121222"/>
<path transform="translate(1160,688)" d="m0 0h6l5 7-1 2-5-4v-2l-7-1z" fill="#121221"/>
<path transform="translate(848,1437)" d="m0 0 2 3-5 11-2-4z" fill="#195786"/>
<path transform="translate(864,681)" d="m0 0 3 1 3 2-8 2v-2h-7l4-2z" fill="#1A1A32"/>
<path transform="translate(737,1413)" d="m0 0 7 1 1 4-9-2-1-2z" fill="#1C709F"/>
<path transform="translate(840,1138)" d="m0 0h7l2 2-3 2h-8z" fill="#131323"/>
<path transform="translate(715,1413)" d="m0 0h2l-1 10-2 1-1-10z" fill="#359EBD"/>
<path transform="translate(1249,968)" d="m0 0 3 2-1 12-2-3z" fill="#121221"/>
<path transform="translate(1265,912)" d="m0 0h2l-2 4-3 5-6 4 2-4z" fill="#1D1D38"/>
<path transform="translate(1225,1108)" d="m0 0h3l2 1-2 5-4 2v-6z" fill="#1E213D"/>
</svg>
