<?xml version="1.0" encoding="UTF-8"?>
<svg version="1.1" viewBox="0 0 2000 2000" width="1280" height="1280" xmlns="http://www.w3.org/2000/svg">
<path transform="translate(782,522)" d="m0 0h467l20 1 18 3 17 5 15 8 11 9 15 15 7 10 8 15 6 18 3 21 1 16 2 221v233l-1 29-5 25-6 16-9 16-9 12-13 13-18 12-16 7-17 4-26 2-32 1h-190l-272-2-32-1-21-4-12-5-12-7-9-7-14-14-9-13-9-17-5-16-3-21v-491l1-17 5-22 8-16 9-14 14-15 9-9 10-7 14-7 13-4 16-2z" fill="#252647"/>
<path transform="translate(896,604)" d="m0 0h7v51l-1 16-3 3-24 6-37 8h-6l-2 6-8 16-1 3h-2l1 38v76l-2 5-4 3h-3l4 4 5 1-1 5-8 12-7 9h-2l-2 4-4 5h-2l2 5 9 10 12 17 5 7v28l-3 85-1 11 5 8 8 14 2 8 9 1 29 5 30 7 2 2v69l-8-1-28-7-72-17-9-3-7-8-18-27-10-14-5-8 1-3 6-3-2-1v-2h-3l-1-2v-21l4-63 2-25v-12l-10-11-9-11-12-14-9-10-8-10 1-5 12-12 9-11 12-14 10-11 4-7v-13l-8-107v-10l7-11 9-12 16-23 8-11 7-3 45-11 56-13z" fill="#0081B2"/>
<path transform="translate(1098,603)" d="m0 0 8 1 36 9 50 12 21 6 8 7 10 15 7 10 17 25 1 7-7 94-1 15v17l9 10 12 14 13 15 10 11 4 5-1 4-9 10-7 8-12 14-9 10-6 8-3 3h-2l6 98v18l-3 7-3 1v4l8 4-2 5-7 11-12 17-14 21-4 5-13 4-30 7-56 13-18 4-1-2v-34l1-33 2-2 18-4 30-6 18-1v-5l7-11 8-15v-24l-3-87v-12l2-3 11 2-3-4v-9l11-16 6-7-1-5-13-14-11-16v-4l11-4 1-2-5-1-3-2v-2h-3l-2-12 1-52 1-27v-19l-4-11-8-15-2-4-8-2-21-4-29-6-10-3-2-4z" fill="#0081B2"/>
<path transform="translate(789,886)" d="m0 0h6l8 5 5 9v15h13v57l-2 55-1 11 5 8 8 14 2 8 9 1 29 5 30 7 2 2v69l-8-1-28-7-72-17-9-3-7-8-18-27-10-14-5-8 1-3 6-3-2-1v-2h-3l-1-2v-21l4-63 2-25v-12l-10-11-2-5-6-8v-6l8-5 12-5 24-7z" fill="#0081B2"/>
<path transform="translate(1098,603)" d="m0 0 8 1 36 9 50 12 21 6 8 7 10 15 7 10 15 22 1 4v17l-3 34-4 30-2 6-4 1-7-4h-16l-15-3h-16l-3-9-2-42-4-11-8-15-2-4-8-2-21-4-29-6-10-3-2-4z" fill="#0081B2"/>
<path transform="translate(1253,687)" d="m0 0 2 1 1 7-7 94-1 15v17l9 10 12 14 13 15 10 11 4 5-1 4-9 10-7 8-12 14-9 10-6 8-3 3h-2l1 15v20h-1l-2-32-51-17-5-2 3-3-3-3v-9l11-16 6-7-1-5-13-14-11-16v-4l11-4 1-2-5-1-3-2v-2h-3l-2-12 1-52 1-26 2-1 1 23 2 9 17-1 16 3h14l7 4h4l2-13 4-32 2-25z" fill="#0081B2"/>
<path transform="translate(893,605)" d="m0 0h8l1 2-3 23-3 6-11 8-12 7-19 8-26 13h-7l-2-4-4-2-4-5-5-1-1 15-4 14-4 6-7 4 1 5 18 8 5 2v2l3 1v50l-2 11-5 5-6 2h-40l-8-4-3-7-5-55-1-16v-15l4-5 6-9 3-7 13-18 8-12 4-5 7-3 45-11z" fill="#00A9C7"/>
<path transform="translate(789,886)" d="m0 0h6l8 5 5 9v15h13l-1 33-2 28-2 21-3 7-4 2h-8l-6 2-30 4-7 1-5-5-1-2v-20l2-35v-17l-1-3h-2l-1-4-4-2-9-11-2-3v-6l8-5 12-5 24-7z" fill="#00BFD4"/>
<path transform="translate(934,1280)" d="m0 0h50l15 2 14 5 11 8 6 8 5 11 2 9v12l-2 11-5 10-9 10-11 7-13 4-6 1h-58v-97zm32 26v46l6 1 16-1 8-4 5-6 3-10-1-11-4-8-5-4-8-3z" fill="#009CC1"/>
<path transform="translate(851,1278)" d="m0 0h16l13 3 12 6 10 9 6 8 5 12 1 4v18l-4 13-6 10-8 8-12 7-9 3-7 1h-21l-13-4-11-6-10-10-6-11-3-10v-19l5-14 7-11 7-6 12-7zm2 27-8 4-6 8-2 6v13l4 9 5 5 5 3 5 1h8l10-5 6-9 1-5v-12l-3-8-5-6-9-4z" fill="#01A8C7"/>
<path transform="translate(1237,1279)" d="m0 0h20l10 3 8 6 5 10v12l-4 8-8 7-2 1 1 4 4 4h3l3-9 4-1 10 3 11 4 1 3-7 16-1 3 5 5 2 4-1 2h-2l-2 4-10 11-5-2-5-4-6 1-11 5-5 1h-24l-13-4-8-6-6-7-3-10 2-10 4-8 8-8 3-2-1-5-4-7-1-4v-8l4-10 8-7 9-4zm7 21-3 3 1 6 3 3 6-2 2-4-1-5-1-1zm-8 41-3 4v6l5 5 2 1h7l7-2-2-4-12-10z" fill="#007FB0"/>
<path transform="translate(1057,1280)" d="m0 0h78l1 1-1 24h-47l1 11 40 1 1 17v5l-1 1-40 1v12l47 1 1 1v23l-78 1-3-2v-96z" fill="#0080B1"/>
<path transform="translate(1231,660)" d="m0 0 5 3 5 5 8 11 4 6 1 4v17l-3 34-4 30-2 6-4 1-7-4h-16l-15-3h-16l-3-9-1-48 6-11 7-11 3-1 2-4 5-6 8-7 8-6 5-5z" fill="#00A9C7"/>
<path transform="translate(742,1278)" d="m0 0h15l13 3 9 4 6 4 7 6 1 3-15 14h-2l-1 3-5-1-7-6-5-2h-13l-9 4-6 10-1 4v12l5 10 6 5 8 2h7l9-3 7-6 5 1 13 12 4 3-2 4-9 8-10 5-6 2-7 1h-21l-11-3-12-6-7-6-7-10-5-12-1-5v-17l3-12 7-12 7-7 11-7 13-4z" fill="#01BFD4"/>
<path transform="translate(750,691)" d="m0 0 9 1 8 4 27 11 8 2 12 5v2l3 1v50l-2 11-5 5-6 2h-40l-8-4-3-7-5-55v-27z" fill="#00BFD4"/>
<path transform="translate(1180,913)" d="m0 0 9 2v2l12 3 29 10 15 5 1 1 1 15v28l-3 11-5 6-17 3-9 3-13 1-10 3-5-1-1-1-2-31-1-19-1-1-1-37z" fill="#00BED4"/>
<path transform="translate(1198,1048)" d="m0 0h7l40 14 9 4-1 4-7 11-12 17-6 9-6 5-7 11-32 8-64 15-5-1 1-4 6-2v-2l11-7 6-3 9-7 14-8 15-7 6-2h7l5 1-1-5-5-7-2-11 4-7 3-13 2-4 1-7z" fill="#00A8C7"/>
<path transform="translate(851,1283)" d="m0 0 3 3-3 2 2 5-1 5-3 1v2h-2v4l-5 5-2 7-2 6v13l1 7v5h2v3l5 2 4 3v2l7 1 10 3 18-4 2-4 2-1v-4l3 1 2 1v-2l3-1 1 6-5 6-6 4-12 6h-3v2l-9 1-20 1h-9l-4-2v-2l-5 1-8-7-6-7-4-8-2-6v-21h2l1-5 2-3 1-5 4-3 1-2 2-1 1-3 5-1v-2h2v-2l8-5 12-5z" fill="#00BFD4"/>
<path transform="translate(754,821)" d="m0 0 8 1 12 5 6 4 4 5 4 12 2 3-1 9-4 8-5 5-7 3-22 2h-41l-3-1 2-5 9-10 9-11 7-8 8-7 7-7z" fill="#00A9C7"/>
<path transform="translate(1099,603)" d="m0 0 7 1 36 9 5 1v2l11 2 20 5 3 2-1 5-13 5-17 11-7 4-16 6-9 3h-6l-9-9-2-7-2-26z" fill="#00A9C7"/>
<path transform="translate(843,686)" d="m0 0h5l-3 2-11 2-8 17-3 24 1 43 2 33v31l-4 13-5 11-3 12-1 6-2 5 1 4 2 6h2l4 6v2l3 1 2 5 1 22v16l-1 6-1 54v21l1 12 6 11 3 7 9 6 19 4 25 4 3 1h9l5 2v2l4 2-1 17-2 56-1 1-10-1-6-2 4-1 11 3-1-69-4-2-37-8-19-3-9-2-4-9-10-19-2-3 1-10 3-85v-28l-10-14-9-12-8-9v-4h2l2-4 4-5h2l2-4 8-11 5-8 1-3-7-1-2-4 7-4 1-4v-114h2l1-5 8-17 2-3z" fill="#142749"/>
<path transform="translate(1238,679)" d="m0 0h7l5 4 3 2 1 4v17h-2v10l-2 15-1 5-4 3-16-2-30-4h-9l-4-2v-15l4-4 15-6 10-7 8-6 5-5z" fill="#00BFD4"/>
<path transform="translate(813,1041)" d="m0 0h5l3 6v8l-2 6-9 16-7 8-5 4-8 8h-2v2l-7 5-7-1-10-10-11-15-7-11 1-3 8-2 43-16z" fill="#00A9C7"/>
<path transform="translate(1248,836)" d="m0 0 9 1 6 4 7 7 7 6 9 11 7 8 1 6h-21l-48-2-5-3v-2l-4-2-5-5v-5l4-8 11-7z" fill="#00A8C7"/>
<path transform="translate(934,1280)" d="m0 0h50l15 2 14 5 11 8 6 8 5 11 2 9v12l-2 11-5 10-9 10-11 7-13 4-6 1h-58v-97zm2 1-2 2 1 90 5 2 49-1 13-1 9-4v-2l6-2 6-5 1-9-2-5-1-10-3-1v-2h-2l-1-3-1 3-4 2v2l-5 1-4 7-2 1-1 3-2-1 5-6 3-10-1-11-4-8-5-4-8-3-16-1 3-2h10l3-1 10 2 6 4 3 1v2h2v2h2l2 5 3-1v-9l-4-8-1-4-4-4-2-3-4-2-1-2h-2v-2l-4-1-14-1z" fill="#0181B2"/>
<path transform="translate(819,927)" d="m0 0h1v21l-2 28-2 21-3 7-4 2h-8l-6 2-30 4-7 1-5-5-1-2v-20l2-35h1v16l2 7 1 1 16 1h8l18-3 9-1 6-8 2-12z" fill="#00A9C7"/>
<path transform="translate(892,1083)" d="m0 0 5 1 2 5 1 9 1 21v30h-7l-20-5-18-5-6-3-2-3 1-5 2-2h3l1-5 4-5 2-5 11-8h2v-2l8-6 4-5z" fill="#009DC2"/>
<path transform="translate(884,607)" d="m0 0h9l1 2-1 3-14 10-18 8-27 14-17 9-8 1-4-2-6-5v-2l-13-3-2-2 3-9 8-3z" fill="#00BCD3"/>
<path transform="translate(1245,936)" d="m0 0h1l1 15v28l-3 11-5 6-17 3-9 3-13 1-10 3-5-1-1-1-2-31v-12h1l1 14 5 1 28-7 13-6 10-2 3-6 1-7v-11z" fill="#00A9C7"/>
<path transform="translate(816,717)" d="m0 0h1v50l-2 11-5 5-6 2h-40l-8-4-3-7-3-31v-10h1l2 9 4 6 4 3 15 2 22 2h13l3-9 1-11z" fill="#00A9C7"/>
<path transform="translate(789,886)" d="m0 0h6l8 5 5 9v15h13v9h-1v-8l-23 6-8 2h-5l-1-5 4-7 1-3h-7l-20 8-3 2h-8l-1 3 1 4-4-1-9-11-2-3v-6l8-5 12-5 24-7z" fill="#00A9C7"/>
<path transform="translate(1107,602)" d="m0 0 21 3 50 12 32 9 5 3 7 5 6 8 10 14 2 5 3 1 1 4h2l7 8 4 6 1 11v13l-1 5-1 15v28l1 6-3 9-2 8-2 26v17l2 5 5 6 3 1-1-5 7 4 1 5 5 2 11 11v2l3 1 5 9 6 5 4 9-1 6-5 5-2 4h-2v2l-6 4-7 7v-3l10-11 7-8-1-4-10-11-9-11-11-12-9-11-8-9v-17l5-69 3-44-5-9-26-38-7-9-4-3-21-6-62-15-24-6-3-2z" fill="#142749"/>
<path transform="translate(944,1283)" d="m0 0h12l3 3h-2v2l-4 2-1 2h-2l4 10 3 6 1 19-1 3v11l3 8-1 7-5 4-4-1v2h-2l-2 6-3 3-4-1v-2l-3-1v-6l1-3-1-8 1-2v-12l-1-4v-3l-1-7v-18l2-10v-5l4-4z" fill="#00A9C7"/>
<path transform="translate(705,879)" d="m0 0 5 5 9 10 13 15 11 13 9 11 2 2v12l-3 42-3 46v23h3v2l3 1-4 3-3 1 2 5 10 15 10 14 14 21 5 4 15 4 68 16v1l-10-1-31-7-12-3-13-1-4-2v1h-5l-9-5-6-2-6-7-2-1v-2h-2l-7-8-4-5v-2l-4-2-8-13-8-14v-13l4-29 4-52 2-14v-11l-3-13-7-11-1-3h-2v-2l-3-1-5-7-5-5-5-7v-2h-2l-4-8-4-5-3-5z" fill="#14284A"/>
<path transform="translate(1198,1048)" d="m0 0h7l15 5-4 1-6 2-5 12-4 23-1 3v10l1 3-1 2h-9l-10 4-23 11h-2v2l-8 6-5 3-1 4 7-1-4 2-26 6-5-1 1-4 6-2v-2l11-7 6-3 9-7 14-8 15-7 6-2h7l5 1-1-5-5-7-2-11 4-7 3-13 2-4 1-7z" fill="#009DC2"/>
<path transform="translate(1201,870)" d="m0 0 5 4 1 5-9 11-8 12v9l3 4-4 1-8-2-1 2 1 37 2 62v24l-10 19-5 7-1 5-2 1-16 1-41 8-8 3-1 33v36l2 1h-4l-1-4-1-10v-21l-1-5v-22l2-10 1-2 27-5 13-5 11-3 10-6 9-11 1-3h2l1-5 3-5 4-3 1 6 1-7-1-14v-46l-1-24v-33h-2l1-7 4-6 3-3 1-3 6-4 4-5 4-3h2l2-4 1-5-3-3z" fill="#14284A"/>
<path transform="translate(803,1044)" d="m0 0h7l-1 5-7 6-4 4h-2l-2 4-6 9-5 5h-2l-2 4-8 7-7-1-7-3-11-17 1-3 8-2 43-16z" fill="#00BDD3"/>
<path transform="translate(735,845)" d="m0 0 13 1 7 2 3 6v7l-3 11-5 5h-43l2-5 9-10 9-11z" fill="#00BED4"/>
<path transform="translate(894,1106)" d="m0 0 4 1 1 4 2 29v9h-7l-20-5-8-3-3-3 1-7 8-8h2v-2l16-12z" fill="#00A9C7"/>
<path transform="translate(782,632)" d="m0 0 3 1-10 14-11 16-10 14-7 10-1 2v10l8 107v13l-6 9-12 13-9 11-18 21h-3l2-5 9-10 6-8 1-3h2l2-4 7-8 1-2h2l2-6 4-6 3-7 1-5v-27l-1-29-2-12-1-18v-21l-1-14 4-9 4-5 1-3h2l2-4 7-11 5-6 4-7 6-8z" fill="#14284A"/>
<path transform="translate(1184,747)" d="m0 0 2 3 1 5 4 1h14l14 2 16 1 2 1h7l3-7 2-4-1 14-2 10-1 3-4 1-7-4h-16l-15-3h-16l-3-9z" fill="#009DC2"/>
<path transform="translate(816,978)" d="m0 0h1v11l-2 12-3 4-6 1-8 1-11 2-22 3-7 1-5-5-1-2v-20h1l1 8 3 2h17l18-2 21-1v-3h2z" fill="#009DC2"/>
<path transform="translate(1166,621)" d="m0 0 8 1 7 3-1 5-13 5-17 11-7 4-16 6-9 3h-6l-9-9-2-7v-8h1l1 7 6 6 9-1 30-13 9-6 8-2z" fill="#009DC2"/>
<path transform="translate(1100,604)" d="m0 0 9 1 33 8 3 5-5 4-11 3-9 5-9 4-7-1-2-6-2-17z" fill="#00BDD3"/>
<path transform="translate(1248,836)" d="m0 0 9 1 6 4 3 4h-8l-9 3-14 7-6 6h-2l-1 6 2 5 7 2 5 2v1h-15l-5-3v-2l-4-2-5-5v-5l4-8 11-7z" fill="#009DC2"/>
<path transform="translate(1246,961)" d="m0 0h1v18l-3 11-5 6-17 3-9 3-13 1-10 3-5-1-1-1-1-18h1v7l7 1 14-4 12-2 9-4 12-2 6-5z" fill="#009DC2"/>
<path transform="translate(900,608)" d="m0 0h1v9l-3 16-4 5-11 7-10 6-19 8-26 13h-7l-2-4-4-2-3-3 1-2 3 3h7l11-5 15-8 8-4 12-5 19-10 7-3 3-6z" fill="#009DC2"/>
<path transform="translate(816,746)" d="m0 0h1v21l-2 11-5 5-6 2h-40l-8-4-3-7-1-16 2 4 2 6 4 4 4 1h45l3-1 3-12z" fill="#009DC2"/>
<path transform="translate(754,821)" d="m0 0 8 1 12 5 6 4 4 5 4 12 2 3-1 9-4 8-5 5-7 3h-8l4-2 5-5 1-2v-9l-8-23-5-10-7-1-4 2z" fill="#009DC2"/>
<path transform="translate(789,886)" d="m0 0h6l8 5 5 9v15h13v9h-1v-8l-18 2-1-2v-6l3-8-1-7h-3v-2l-19 3-17 6-5 2-9 2-10 5-2 4-3-4v-6l8-5 12-5 24-7z" fill="#009DC2"/>
<path transform="translate(1181,715)" d="m0 0 2 4v19l-2 65v14l1 12h3l3 3 5 2-1 3-8 3h-3l3 7 8 11-1 2-4-4v-2h-2l-1-4-5-1-4-9-1-5v-9l3-39v-38l2-3z" fill="#14284A"/>
<path transform="translate(801,652)" d="m0 0 5 2 5 6h-5l-1 15-4 14-4 6-7 4 1 5 6 3-3 1-12-5v-2l-5-2-1-1v-5l8-7 7-8 6-8 3-17z" fill="#009DC2"/>
<path transform="translate(813,1041)" d="m0 0h5l3 6v8l-2 6-9 16-7 8-5 4-8 8h-2v2l-7 5-7-1-5-5v-3l5 3 7-2 2-4 9-10 8-10 5-5 7-10 3-6 2-9z" fill="#009DC2"/>
<path transform="translate(1276,901)" d="m0 0v3l-9 10-10 13-5 8-2 1v23l3 33 5 56 1 6v8l-3 11-6 4-2 4h-2l2-5 6-9v-2l-9-4 2-4 4-4 1-4v-18l-5-83v-15l7-6 6-8 10-11z" fill="#14284A"/>
<path transform="translate(1264,858)" d="m0 0 13 3v2l5 1 2 4 4 2 4 3-1 5-34-1-6-5v-5l5-4z" fill="#00BFD4"/>
<path transform="translate(1203,1412)" d="m0 0 3 1 11 14 12 14 9 12 1-36 4 1v42l-6-1-8-10-12-16-10-12v39h-5v-47z" fill="#213154"/>
<path transform="translate(1231,660)" d="m0 0 5 3 1 3-8 4-6 7-11 9-7 6-6 9h-2v2h-2v2h-2v2h-2l-1 3h-3l-4 8 1-8 10-16 3-4h2l2-4 5-6 8-7 8-6 5-5z" fill="#009DC2"/>
<path transform="translate(1129,1412)" d="m0 0h2l1 33v15l-3 1-1-39-1-1-12 21-8 13-2-2-3-6-11-18-5-7-2-1 1 8v30h-3v-46l4 1 8 14 12 20 4-4 13-22z" fill="#21456A"/>
<path transform="translate(713,1413)" d="m0 0h28l8 4 6 7 3 7v9l-4 11-8 7-8 2h-25l-1-1v-28zm4 2-2 4v33l1 5 4 1h14l10-2 5-4 5-9 1-10-2-7-5-6-7-4-6-1z" fill="#2992BB"/>
<path transform="translate(986,1412)" d="m0 0 10 1 8 4 7 9 2 7v7l-4 11-8 7-6 2h-16l-6-3-8-9-2-7v-10l5-10 7-6 4-2zm-1 2-9 3-6 5-4 8v13l4 8 6 5 5 2h13l7-3 7-8 2-6v-11l-3-6-9-8-9-2z" fill="#277EA5"/>
<path transform="translate(773,1413)" d="m0 0h34v2h-30v21h25l1 2h-26v19h30v3h-33l-1-2z" fill="#2478A0"/>
<path transform="translate(1097,601)" d="m0 0 5 1-4 1 1 67 1 3 18 5 24 5 24 4 4 3 8 16-1 2-8-13-3-5-31-6-32-7-6-3-2-5-1-16 1-12 1-39z" fill="#14284A"/>
<path transform="translate(1029,1413)" d="m0 0h26l7 4 4 6v10l-4 6-5 4-11 1h-14v15h-3zm4 2-1 1-1 10v11l2 5h19l7-3 4-6 1-7-6-9-4-2z" fill="#145881"/>
<path transform="translate(1237,1061)" d="m0 0 8 1 4 2v2l3 1-2 4-4 3-6 1-3 10-6 1-3-6 2-5 2-10z" fill="#00BFD4"/>
<path transform="translate(817,1412)" d="m0 0h2l6 12 10 24 3 6 3-4 10-21 7-16 3-1-3 10-10 23-8 15h-3l-9-19-11-25z" fill="#3F9FC3"/>
<path transform="translate(875,1412)" d="m0 0 31 1v2l-29 1v19l26 2v1h-25l-1 7v11l2 1 28 1v2h-33l-1-7 1-40z" fill="#1F6188"/>
<path transform="translate(1153,1413)" d="m0 0h31v3h-28l-1 20h25l1 2h-26l1 5v15h29v2l-31 1-2-3z" fill="#203457"/>
<path transform="translate(878,606)" d="m0 0h11v1l-81 19-16 4-4-1h2v-2l32-8 9-2 6-2 18-4z" fill="#14284A"/>
<path transform="translate(898,603)" d="m0 0h6l2 4-1 35-1 33-5 4-9-1-27 6h-6l3-2 27-6 14-3 1-18 1-51h-5z" fill="#14284A"/>
<path transform="translate(1258,1413)" d="m0 0h32l-3 2h-11l-1 45-3 1v-45l-15-1z" fill="#1F395D"/>
<path transform="translate(925,1412)" d="m0 0h2l1 45 27 1v2h-31v-33z" fill="#1587B3"/>
<path transform="translate(1204,1418)" d="m0 0 2 1 1 21v20h-5v-40z" fill="#076E9C"/>
<path transform="translate(986,1412)" d="m0 0 10 1 8 4 7 9 2 7v7l-2 7h-3l1-6v-11l-3-6-8-7-9-2-9 1-8 5-4 6-3 1 2-5 6-7 6-3z" fill="#1A89B5"/>
<path transform="translate(715,1413)" d="m0 0h26l8 4 6 7 3 7v9l-2 4h-2v-11l-2-7-4-5-7-4-6-1h-20z" fill="#1E8CB6"/>
<path transform="translate(817,1412)" d="m0 0h2l6 12 10 24 4 9h-3l-8-16-11-25z" fill="#3799BF"/>
<path transform="translate(1082,1414)" d="m0 0 2 4 1 11v30h-3z" fill="#06719F"/>
<path transform="translate(1130,1413)" d="m0 0h1l1 32v15l-3 1v-45z" fill="#2F3E5F"/>
<path transform="translate(768,1281)" d="m0 0 9 3 8 5 7 6 1 3-6 6-3-1 3-5 2-1-2-1v-2l-4-2-7-4v-2l-7-2z" fill="#15B0CC"/>
<path transform="translate(1030,1417)" d="m0 0 2 2v18l1 5h-2l1 17h-3v-39z" fill="#1D395E"/>
<path transform="translate(1e3 1417)" d="m0 0 4 2 5 7 2 7v7l-2 7h-3l1-6v-11l-3-6-5-6z" fill="#3799BF"/>
<path transform="translate(925,1445)" d="m0 0h2l1 12 27 1v2h-31v-5h2z" fill="#3084AA"/>
<path transform="translate(1029,1413)" d="m0 0h26l6 3v2l-5-1-2-1h-21l-2 3-2 1z" fill="#154C74"/>
<path transform="translate(777,1457)" d="m0 0h30v3h-33z" fill="#1878A3"/>
<path transform="translate(773,1413)" d="m0 0h34v2h-32l-1 2z" fill="#06709E"/>
<path transform="translate(966,1427)" d="m0 0 1 3v13l3 6v3l-3-1-3-6-1-4v-10l1-3z" fill="#347CA0"/>
<path transform="translate(877,1457)" d="m0 0 30 1v2h-33z" fill="#0377A6"/>
<path transform="translate(775,1345)" d="m0 0 8 6 10 9-2 4-3 1-3-9h-2v-2l-4-2-4-5z" fill="#07A7C7"/>
<path transform="translate(753,1443)" d="m0 0h3l-1 6-7 8-5 1-2-2 7-4z" fill="#399DC2"/>
<path transform="translate(1082,1413)" d="m0 0 4 1 8 14-3 1-5-7-2-1-1 3z" fill="#203E63"/>
<path transform="translate(859,1412)" d="m0 0h2l-3 10-4 9-4 2 3-9z" fill="#47A3C7"/>
<path transform="translate(890,1287)" d="m0 0 5 2 10 10 1 5-4-2-3-5-4-3v-2l-4-2z" fill="#049BC0"/>
<path transform="translate(775,1415)" d="m0 0h2l-1 20-3 2v-21z" fill="#3E9BC0"/>
<path transform="translate(829,1438)" d="m0 0 3 3 5 12 2 4h-3l-7-14z" fill="#254F73"/>
<path transform="translate(1092,1429)" d="m0 0h3l11 19-2 2-8-13-4-6z" fill="#205D84"/>
<path transform="translate(1129,1412)" d="m0 0 2 1-2 9-2-1-6 11h-3l2-5 8-13z" fill="#1F6087"/>
<path transform="translate(715,1413)" d="m0 0h23l-1 2-22 1z" fill="#007FAF"/>
<path transform="translate(1061,1417)" d="m0 0 4 4 1 2v10l-3-1v-6l-4-8z" fill="#1285B2"/>
<path transform="translate(988,1351)" d="m0 0 3 1-7 3h-14l-1-2z" fill="#0081B2"/>
<path transform="translate(1239,1417)" d="m0 0 4 1-1 1-1 33h-1z" fill="#0081B2"/>
<path transform="translate(979,1413)" d="m0 0m-2 1 2 1-3 3-5 4-3 5-3 1 2-5 6-7z" fill="#72AEC8"/>
<path transform="translate(756,1430)" d="m0 0 2 1v9l-2 4h-2v-7z" fill="#25759D"/>
<path transform="translate(747,828)" d="m0 0 3 1-14 14v-3z" fill="#008FB9"/>
<path transform="translate(970,1451)" d="m0 0 8 5 3 2v2l-7-2-5-6z" fill="#2891BA"/>
<path transform="translate(1029,1444)" d="m0 0h2l1 15h-3z" fill="#262647"/>
<path transform="translate(775,1441)" d="m0 0h1l1 17-3 1-1-3 1-2v-11z" fill="#313959"/>
<path transform="translate(965,1439)" d="m0 0 5 10v3l-3-1-3-6v-5z" fill="#237097"/>
<path transform="translate(785,632)" d="m0 0h2l-1 5-6 5-1 2-2-1z" fill="#0094BC"/>
<path transform="translate(1292,873)" d="m0 0 2 3v3h-21v-1l18-1z" fill="#00A1C4"/>
<path transform="translate(925,1445)" d="m0 0h2l1 12 1 2-5 1v-5h2z" fill="#204E73"/>
<path transform="translate(805,1457)" d="m0 0h2v3h-16v-1z" fill="#017DAE"/>
<path transform="translate(854,1422)" d="m0 0 2 4-2 5-4 2 3-9z" fill="#61B0CE"/>
</svg>
